<svg t="1629186242516" class="icon" viewBox="0 0 1024 1024" version="1.1" xmlns="http://www.w3.org/2000/svg" p-id="50738" width="48" height="48"><path d="M699.273846 253.44a143.556923 143.556923 0 0 0-110.473846 7.286154c-85.661538 42.338462-81.723077 139.224615-66.756923 228.430769 19.692308 118.153846 3.544615 177.230769-56.32 206.769231a124.849231 124.849231 0 0 1-167.384615-56.910769A125.636923 125.636923 0 0 1 354.461538 471.236923a29.538462 29.538462 0 1 0-26.190769-52.972308 184.32 184.32 0 0 0 23.236923 339.889231A182.547692 182.547692 0 0 0 492.307692 748.307692c123.470769-60.849231 98.461538-207.163077 88.418462-269.587692-19.692308-113.821538 0-148.48 34.658461-165.612308a85.464615 85.464615 0 0 1 114.609231 39.384616 86.252308 86.252308 0 0 1-39.384615 115.003077 29.538462 29.538462 0 0 0 26.190769 52.972307 144.935385 144.935385 0 0 0-17.723077-267.027692z" p-id="50739" fill="#7f87a0"></path><path d="M512 0a512 512 0 1 0 512 512A512 512 0 0 0 512 0z m0 964.923077a452.923077 452.923077 0 1 1 452.923077-452.923077 452.923077 452.923077 0 0 1-452.923077 452.923077z" p-id="50740" fill="#7f87a0"></path></svg>