<svg class="icon" style="width: 1em;height: 1em;vertical-align: middle;fill: currentColor;overflow: hidden;" viewBox="0 0 1024 1024" version="1.1" xmlns="http://www.w3.org/2000/svg" p-id="3570"><path d="M916.83 660.54A346.29 346.29 0 0 0 684 446.93V369a207.58 207.58 0 0 0 28.36-74.86c41.75-24.51 64.43-56.5 64.43-91.62 0-40.58-30.29-77-85.29-102.5C643.11 77.57 579.36 65.2 512 65.2S380.91 77.57 332.51 100c-55 25.52-85.28 61.92-85.28 102.5 0 35.12 22.66 67.11 64.41 91.62A207.58 207.58 0 0 0 340 369v77.91C192 487.25 86 623.24 86 778.38V931.8c0 14.91 12.55 27.2 27.46 27.2h797.08c14.91 0 27.46-12.29 27.46-27.2V778.38a340.37 340.37 0 0 0-21.17-117.84zM394 426.31a202.39 202.39 0 0 0 236 0v43.54a118 118 0 0 1-236 0zM375.63 321.2c40.57 12.14 87.52 18.65 136.37 18.65s95.79-6.51 136.37-18.65a149.87 149.87 0 0 1-31.17 45.29 148.26 148.26 0 0 1-210.4 0 149.87 149.87 0 0 1-31.17-45.29zM355.24 149c41.42-19.22 97.1-29.81 156.76-29.81s115.34 10.6 156.76 29.81c33.82 15.69 54 35.7 54 53.52s-20.19 37.83-54 53.52c-41.42 19.22-97.1 29.81-156.76 29.81S396.66 275.27 355.24 256c-33.82-15.69-54-35.7-54-53.52s20.18-37.78 54-53.48zM884 905H140V778.38c0-126.85 83.86-238.5 202.93-276.09 15.21 79.34 85.24 139.49 169 139.49S665.8 581.64 681 502.3c119 37.6 203 149.34 203 276.09z" fill="" p-id="3571"></path><path d="M515.61 704.28m-27 0a27 27 0 1 0 54 0 27 27 0 1 0-54 0Z" fill="" p-id="3572"></path><path d="M515.61 837.95m-27 0a27 27 0 1 0 54 0 27 27 0 1 0-54 0Z" fill="" p-id="3573"></path></svg>