<svg t="1628845011005" class="icon" viewBox="0 0 1024 1024" version="1.1" xmlns="http://www.w3.org/2000/svg" p-id="32385" width="48" height="48"><path d="M341.49717333 474.9842963H134.60608948c-61.49582697 0-112.30564503-50.42752475-112.30564503-111.93306075V156.20626963c0-61.50674963 50.80981808-108.41960297 112.30564503-108.41960296H341.49717333c61.49461333 0 109.21453037 46.91285333 109.21453037 108.41960296V363.05123555c0 61.505536-47.71991703 111.93306075-109.21453037 111.93306075z m-206.89108385-358.02074075c-21.98368711 0-41.91512652 17.2481043-41.91512651 39.24271408V363.05123555c0 21.99460978 19.93143941 40.32891259 41.91512651 40.3289126H341.49717333c21.98247348 0 38.82401185-18.33430282 38.82401185-40.3289126V156.20626963c0-21.99460978-16.84153837-39.24271408-38.82401185-39.24271408H134.60608948z" p-id="32386" fill="#7f87a0"></path><path d="M777.34070045 470.23900445c-27.0336 0-52.44579082-10.53187792-71.57138015-29.65746727L582.52037689 317.36900267c-19.10131675-19.10253037-29.62105837-44.51472118-29.6344083-71.54832119 0-27.04452267 10.51974163-52.45914075 29.6344083-71.56045748L705.78024297 51.01370785c19.103744-19.1158803 44.50501215-29.64654459 71.53618488-29.6465446 27.0214637 0 52.43486815 10.5306643 71.55074845 29.6465446l123.25743881 123.24651615c19.11466667 19.08189867 29.64533097 44.49044859 29.64533097 71.53618489 0 27.04452267-10.5306643 52.45792711-29.64533097 71.57259378L848.8671763 440.59245985c-19.08068503 19.10253037-44.49408948 29.64654459-71.52647585 29.6465446z m-0.0242726-377.21793423c-7.8849517 0-15.28930608 3.07776475-20.86229333 8.65196563L633.18334578 224.92319289c-5.57541452 5.57298725-8.64347022 12.98947792-8.64347023 20.88535229 0 7.89466075 3.0680557 15.31357867 8.64347023 20.87564327l123.25865244 123.22345718c11.19694697 11.18359703 30.59074845 11.19694697 41.73915023 0.03519526l123.28413866-123.25986607c5.57541452-5.57541452 8.65317925-12.99190518 8.65317926-20.88777957 0-7.88373808-3.06684208-15.28930608-8.64104296-20.85379792l-123.273216-123.26836148c-5.58633718-5.57298725-13.00404148-8.65196563-20.88777956-8.65196563z" p-id="32387" fill="#7f87a0"></path><path d="M453.13896297 890.18276978c0 61.58927645-49.92750933 111.51678578-111.51678579 111.51678577H133.81723022c-61.58927645 0-111.51678578-49.92750933-111.51678577-111.51678577V682.37782282c0-61.58927645 49.92750933-111.51678578 111.51678577-111.51678579h207.8061606c61.58927645 0 111.51678578 49.92750933 111.51678577 111.51678579v207.80494696z m-74.03140742-206.63986253c0-22.01645511-17.8464237-39.86409245-39.86166518-39.86409243h-206.69326222c-22.01524148 0-39.86166518 17.84763733-39.86166518 39.86409243v206.68962134c0 22.01645511 17.8464237 39.86409245 39.86166518 39.86409244h206.69447585c22.01524148 0 39.86166518-17.84763733 39.86166518-39.86409244V683.54290725z m599.53303704 206.63986253c0 61.58927645-49.92750933 111.51678578-111.51678577 111.51678577H659.31885985c-61.58927645 0-111.51678578-49.92750933-111.51678577-111.51678577V682.37782282c0-61.58927645 49.92750933-111.51678578 111.51678577-111.51678579h207.8061606c61.58927645 0 111.51678578 49.92750933 111.51678577 111.51678579v207.80494696z m-72.81777777-206.63986253c0-22.01645511-17.8464237-39.86409245-39.86166519-39.86409243h-206.69326222c-22.01524148 0-39.86166518 17.84763733-39.86166519 39.86409243v206.68962134c0 22.01645511 17.8464237 39.86409245 39.86166519 39.86409244h206.69447584c22.01524148 0 39.86166518-17.84763733 39.8616652-39.86409244V683.54290725z" p-id="32388" fill="#7f87a0"></path></svg>